<mxfile host="www.draw.io" modified="2020-01-30T23:42:27.034Z" agent="Mozilla/5.0 (Windows NT 10.0; Win64; x64) AppleWebKit/537.36 (KHTML, like Gecko) Chrome/79.0.3945.130 Safari/537.36" etag="3iY68cydsKDHX3wPl83I" version="12.6.2" type="github">
  <diagram id="Wu5KYeWg9CnrSPEB1UDo" name="Page-1">
    <mxGraphModel dx="1955" dy="1043" grid="1" gridSize="10" guides="1" tooltips="1" connect="1" arrows="1" fold="1" page="1" pageScale="1" pageWidth="850" pageHeight="1100" background="#FFFFFF" math="0" shadow="0">
      <root>
        <mxCell id="0"/>
        <mxCell id="1" parent="0"/>
        <mxCell id="lhyEcPZmuPK8agVlUcdz-46" value="" style="verticalLabelPosition=bottom;shadow=0;dashed=0;align=center;html=1;verticalAlign=top;strokeWidth=1;shape=mxgraph.mockup.graphics.bubbleChart;strokeColor=none;strokeColor2=none;strokeColor3=#666666;fillColor2=#008cff;fillColor3=#dddddd;fillColor=#333333;rotation=90;" vertex="1" parent="1">
          <mxGeometry x="509.69000000000005" y="138" width="241.25" height="190" as="geometry"/>
        </mxCell>
        <mxCell id="lhyEcPZmuPK8agVlUcdz-28" value="" style="verticalLabelPosition=bottom;shadow=0;dashed=0;align=center;html=1;verticalAlign=top;strokeWidth=1;shape=mxgraph.mockup.graphics.bubbleChart;strokeColor=none;strokeColor2=none;strokeColor3=#666666;fillColor2=#008cff;fillColor3=#dddddd;fillColor=#333333;rotation=90;" vertex="1" parent="1">
          <mxGeometry y="269.38" width="241.25" height="190" as="geometry"/>
        </mxCell>
        <mxCell id="lhyEcPZmuPK8agVlUcdz-32" value="" style="rounded=1;whiteSpace=wrap;html=1;strokeColor=#000000;fillColor=#FFFFFF;" vertex="1" parent="1">
          <mxGeometry x="23.62" y="383" width="194.38" height="147" as="geometry"/>
        </mxCell>
        <mxCell id="lhyEcPZmuPK8agVlUcdz-21" value="" style="rounded=1;whiteSpace=wrap;html=1;strokeColor=#000000;fillColor=#FFFFFF;" vertex="1" parent="1">
          <mxGeometry x="200" y="109" width="60" height="50" as="geometry"/>
        </mxCell>
        <mxCell id="lhyEcPZmuPK8agVlUcdz-18" value="" style="rounded=1;whiteSpace=wrap;html=1;" vertex="1" parent="1">
          <mxGeometry x="330.62" y="77" width="120" height="60" as="geometry"/>
        </mxCell>
        <mxCell id="lhyEcPZmuPK8agVlUcdz-12" value="" style="rounded=0;whiteSpace=wrap;html=1;fillColor=#d5e8d4;strokeColor=#82b366;" vertex="1" parent="1">
          <mxGeometry x="295.62" y="170" width="190" height="46" as="geometry"/>
        </mxCell>
        <mxCell id="lhyEcPZmuPK8agVlUcdz-6" value="" style="rounded=0;whiteSpace=wrap;html=1;fillColor=#d5e8d4;strokeColor=#82b366;" vertex="1" parent="1">
          <mxGeometry x="296.62" y="450" width="190" height="46" as="geometry"/>
        </mxCell>
        <mxCell id="lhyEcPZmuPK8agVlUcdz-2" value="" style="verticalLabelPosition=bottom;shadow=0;dashed=0;align=center;html=1;verticalAlign=top;strokeWidth=1;shape=mxgraph.mockup.graphics.bubbleChart;strokeColor=none;strokeColor2=none;strokeColor3=#666666;fillColor2=#008cff;fillColor3=#dddddd;fillColor=#333333;rotation=90;" vertex="1" parent="1">
          <mxGeometry x="270" y="239.38" width="241.25" height="190" as="geometry"/>
        </mxCell>
        <mxCell id="lhyEcPZmuPK8agVlUcdz-1" value="" style="verticalLabelPosition=bottom;verticalAlign=top;html=1;shadow=0;dashed=0;strokeWidth=1;shape=mxgraph.android.phone2;strokeColor=#c0c0c0;fillColor=#333333;" vertex="1" parent="1">
          <mxGeometry x="290.62" y="140" width="200" height="390" as="geometry"/>
        </mxCell>
        <mxCell id="lhyEcPZmuPK8agVlUcdz-3" value="" style="ellipse;whiteSpace=wrap;html=1;aspect=fixed;fillColor=#FF6666;strokeColor=#b85450;" vertex="1" parent="1">
          <mxGeometry x="450.62" y="420" width="30" height="30" as="geometry"/>
        </mxCell>
        <mxCell id="lhyEcPZmuPK8agVlUcdz-4" value="" style="dashed=0;aspect=fixed;verticalLabelPosition=bottom;verticalAlign=top;align=center;shape=mxgraph.gmdl.calendar;strokeColor=none;fillColor=#000000;shadow=0;" vertex="1" parent="1">
          <mxGeometry x="456.62" y="426" width="17" height="17" as="geometry"/>
        </mxCell>
        <mxCell id="lhyEcPZmuPK8agVlUcdz-7" value="" style="outlineConnect=0;fontColor=#232F3E;gradientColor=none;fillColor=#000000;strokeColor=none;dashed=0;verticalLabelPosition=bottom;verticalAlign=top;align=center;html=1;fontSize=12;fontStyle=0;aspect=fixed;pointerEvents=1;shape=mxgraph.aws4.container_registry_image;" vertex="1" parent="1">
          <mxGeometry x="320.62" y="459" width="28" height="28" as="geometry"/>
        </mxCell>
        <mxCell id="lhyEcPZmuPK8agVlUcdz-8" value="" style="aspect=fixed;html=1;points=[];align=center;image;fontSize=12;image=img/lib/mscae/Shared_Dashboard.svg;fillColor=#000000;imageBackground=#000000;imageBorder=none;" vertex="1" parent="1">
          <mxGeometry x="420.62" y="459.5" width="32.93" height="27" as="geometry"/>
        </mxCell>
        <mxCell id="lhyEcPZmuPK8agVlUcdz-9" value="" style="ellipse;whiteSpace=wrap;html=1;aspect=fixed;fillColor=#FF6666;strokeColor=#b85450;" vertex="1" parent="1">
          <mxGeometry x="309.62" y="420" width="30" height="30" as="geometry"/>
        </mxCell>
        <mxCell id="lhyEcPZmuPK8agVlUcdz-11" value="" style="strokeColor=#FF6666;verticalLabelPosition=bottom;shadow=0;dashed=0;verticalAlign=top;strokeWidth=2;html=1;shape=mxgraph.mockup.misc.shareIcon;fillColor=#000000;" vertex="1" parent="1">
          <mxGeometry x="315.62" y="425.5" width="20" height="20" as="geometry"/>
        </mxCell>
        <mxCell id="lhyEcPZmuPK8agVlUcdz-13" value="NASA APoD" style="text;html=1;strokeColor=none;fillColor=none;align=center;verticalAlign=middle;whiteSpace=wrap;rounded=0;" vertex="1" parent="1">
          <mxGeometry x="300.62" y="183" width="90" height="20" as="geometry"/>
        </mxCell>
        <mxCell id="lhyEcPZmuPK8agVlUcdz-15" value="" style="shape=image;html=1;verticalAlign=top;verticalLabelPosition=bottom;labelBackgroundColor=#ffffff;imageAspect=0;aspect=fixed;image=https://cdn0.iconfinder.com/data/icons/very-basic-android-l-lollipop-icon-pack/24/menu2-128.png;strokeColor=#FF6666;fillColor=#000000;" vertex="1" parent="1">
          <mxGeometry x="455.12" y="179" width="28" height="28" as="geometry"/>
        </mxCell>
        <mxCell id="lhyEcPZmuPK8agVlUcdz-17" value="&lt;b&gt;App opens to today&#39;s APoD&lt;/b&gt;" style="text;html=1;strokeColor=none;fillColor=none;align=center;verticalAlign=middle;whiteSpace=wrap;rounded=0;" vertex="1" parent="1">
          <mxGeometry x="344" y="87" width="90" height="40" as="geometry"/>
        </mxCell>
        <mxCell id="lhyEcPZmuPK8agVlUcdz-19" value="" style="endArrow=classic;html=1;" edge="1" parent="1" target="lhyEcPZmuPK8agVlUcdz-2">
          <mxGeometry width="50" height="50" relative="1" as="geometry">
            <mxPoint x="260" y="150" as="sourcePoint"/>
            <mxPoint x="240" y="183" as="targetPoint"/>
          </mxGeometry>
        </mxCell>
        <mxCell id="lhyEcPZmuPK8agVlUcdz-20" value="Astronomy&lt;br&gt;photo" style="text;html=1;strokeColor=none;fillColor=none;align=center;verticalAlign=middle;whiteSpace=wrap;rounded=0;" vertex="1" parent="1">
          <mxGeometry x="210" y="124" width="40" height="20" as="geometry"/>
        </mxCell>
        <mxCell id="lhyEcPZmuPK8agVlUcdz-22" value="" style="rounded=1;whiteSpace=wrap;html=1;strokeColor=#000000;fillColor=#FFFFFF;" vertex="1" parent="1">
          <mxGeometry x="260" y="560" width="60" height="50" as="geometry"/>
        </mxCell>
        <mxCell id="lhyEcPZmuPK8agVlUcdz-23" value="" style="endArrow=classic;html=1;exitX=0.25;exitY=0;exitDx=0;exitDy=0;entryX=0;entryY=1;entryDx=0;entryDy=0;" edge="1" parent="1" source="lhyEcPZmuPK8agVlUcdz-22" target="lhyEcPZmuPK8agVlUcdz-9">
          <mxGeometry width="50" height="50" relative="1" as="geometry">
            <mxPoint x="320" y="601" as="sourcePoint"/>
            <mxPoint x="365.16757172686835" y="664.755" as="targetPoint"/>
          </mxGeometry>
        </mxCell>
        <mxCell id="lhyEcPZmuPK8agVlUcdz-24" value="Share button" style="text;html=1;strokeColor=none;fillColor=none;align=center;verticalAlign=middle;whiteSpace=wrap;rounded=0;" vertex="1" parent="1">
          <mxGeometry x="270" y="575" width="40" height="20" as="geometry"/>
        </mxCell>
        <mxCell id="lhyEcPZmuPK8agVlUcdz-27" value="" style="rounded=0;whiteSpace=wrap;html=1;fillColor=#d5e8d4;strokeColor=#82b366;" vertex="1" parent="1">
          <mxGeometry x="25.620000000000005" y="200" width="190" height="46" as="geometry"/>
        </mxCell>
        <mxCell id="lhyEcPZmuPK8agVlUcdz-29" value="" style="verticalLabelPosition=bottom;verticalAlign=top;html=1;shadow=0;dashed=0;strokeWidth=1;shape=mxgraph.android.phone2;strokeColor=#c0c0c0;fillColor=#333333;" vertex="1" parent="1">
          <mxGeometry x="20.620000000000005" y="170" width="200" height="390" as="geometry"/>
        </mxCell>
        <mxCell id="lhyEcPZmuPK8agVlUcdz-30" value="NASA APoD" style="text;html=1;strokeColor=none;fillColor=none;align=center;verticalAlign=middle;whiteSpace=wrap;rounded=0;" vertex="1" parent="1">
          <mxGeometry x="30.620000000000005" y="213" width="90" height="20" as="geometry"/>
        </mxCell>
        <mxCell id="lhyEcPZmuPK8agVlUcdz-31" value="" style="shape=image;html=1;verticalAlign=top;verticalLabelPosition=bottom;labelBackgroundColor=#ffffff;imageAspect=0;aspect=fixed;image=https://cdn0.iconfinder.com/data/icons/very-basic-android-l-lollipop-icon-pack/24/menu2-128.png;strokeColor=#FF6666;fillColor=#000000;" vertex="1" parent="1">
          <mxGeometry x="185.12" y="209" width="28" height="28" as="geometry"/>
        </mxCell>
        <mxCell id="lhyEcPZmuPK8agVlUcdz-33" value="" style="ellipse;whiteSpace=wrap;html=1;aspect=fixed;strokeColor=#000000;fillColor=#99CCFF;" vertex="1" parent="1">
          <mxGeometry x="34.620000000000005" y="391.5" width="34" height="34" as="geometry"/>
        </mxCell>
        <mxCell id="lhyEcPZmuPK8agVlUcdz-34" value="" style="ellipse;whiteSpace=wrap;html=1;aspect=fixed;strokeColor=#000000;fillColor=#FFFF66;" vertex="1" parent="1">
          <mxGeometry x="80" y="392" width="34" height="34" as="geometry"/>
        </mxCell>
        <mxCell id="lhyEcPZmuPK8agVlUcdz-35" value="" style="ellipse;whiteSpace=wrap;html=1;aspect=fixed;strokeColor=#000000;fillColor=#CC99FF;" vertex="1" parent="1">
          <mxGeometry x="125" y="393" width="34" height="34" as="geometry"/>
        </mxCell>
        <mxCell id="lhyEcPZmuPK8agVlUcdz-36" value="" style="ellipse;whiteSpace=wrap;html=1;aspect=fixed;strokeColor=#000000;fillColor=#FF9999;" vertex="1" parent="1">
          <mxGeometry x="170" y="393.5" width="34" height="34" as="geometry"/>
        </mxCell>
        <mxCell id="lhyEcPZmuPK8agVlUcdz-37" value="" style="ellipse;whiteSpace=wrap;html=1;aspect=fixed;strokeColor=#d79b00;fillColor=#ffe6cc;" vertex="1" parent="1">
          <mxGeometry x="35.940000000000005" y="439.5" width="34" height="34" as="geometry"/>
        </mxCell>
        <mxCell id="lhyEcPZmuPK8agVlUcdz-38" value="" style="ellipse;whiteSpace=wrap;html=1;aspect=fixed;strokeColor=#b85450;fillColor=#f8cecc;" vertex="1" parent="1">
          <mxGeometry x="81.32" y="440" width="34" height="34" as="geometry"/>
        </mxCell>
        <mxCell id="lhyEcPZmuPK8agVlUcdz-39" value="" style="ellipse;whiteSpace=wrap;html=1;aspect=fixed;strokeColor=#6c8ebf;fillColor=#dae8fc;" vertex="1" parent="1">
          <mxGeometry x="126.32" y="441" width="34" height="34" as="geometry"/>
        </mxCell>
        <mxCell id="lhyEcPZmuPK8agVlUcdz-40" value="" style="ellipse;whiteSpace=wrap;html=1;aspect=fixed;strokeColor=#82b366;fillColor=#d5e8d4;" vertex="1" parent="1">
          <mxGeometry x="171.32" y="441.5" width="34" height="34" as="geometry"/>
        </mxCell>
        <mxCell id="lhyEcPZmuPK8agVlUcdz-41" value="" style="shape=flexArrow;endArrow=classic;html=1;exitX=0;exitY=0.5;exitDx=0;exitDy=0;entryX=0.96;entryY=0.677;entryDx=0;entryDy=0;entryPerimeter=0;fillColor=#000000;" edge="1" parent="1" source="lhyEcPZmuPK8agVlUcdz-9" target="lhyEcPZmuPK8agVlUcdz-29">
          <mxGeometry width="50" height="50" relative="1" as="geometry">
            <mxPoint x="240.62" y="393.5" as="sourcePoint"/>
            <mxPoint x="290.62" y="343.5" as="targetPoint"/>
          </mxGeometry>
        </mxCell>
        <mxCell id="lhyEcPZmuPK8agVlUcdz-42" value="" style="rounded=1;whiteSpace=wrap;html=1;strokeColor=#000000;fillColor=#FFFFFF;" vertex="1" parent="1">
          <mxGeometry x="69.94" y="564.39" width="60" height="50" as="geometry"/>
        </mxCell>
        <mxCell id="lhyEcPZmuPK8agVlUcdz-43" value="" style="endArrow=classic;html=1;exitX=0.25;exitY=0;exitDx=0;exitDy=0;" edge="1" parent="1" source="lhyEcPZmuPK8agVlUcdz-42">
          <mxGeometry width="50" height="50" relative="1" as="geometry">
            <mxPoint x="129.94" y="605.39" as="sourcePoint"/>
            <mxPoint x="120" y="470" as="targetPoint"/>
          </mxGeometry>
        </mxCell>
        <mxCell id="lhyEcPZmuPK8agVlUcdz-44" value="Sharing options" style="text;html=1;strokeColor=none;fillColor=none;align=center;verticalAlign=middle;whiteSpace=wrap;rounded=0;" vertex="1" parent="1">
          <mxGeometry x="79.94" y="579.39" width="40" height="20" as="geometry"/>
        </mxCell>
        <mxCell id="lhyEcPZmuPK8agVlUcdz-45" value="" style="rounded=1;whiteSpace=wrap;html=1;strokeColor=#000000;fillColor=#E6E6E6;opacity=50;" vertex="1" parent="1">
          <mxGeometry x="550" y="136" width="160.63" height="194" as="geometry"/>
        </mxCell>
        <mxCell id="lhyEcPZmuPK8agVlUcdz-47" value="&lt;h1&gt;Description&lt;/h1&gt;&lt;p&gt;Lorem ipsum dolor sit amet, consectetur adipisicing elit, sed do eiusmod tempor incididunt ut labore et dolore magna aliqua.&lt;/p&gt;" style="text;html=1;strokeColor=none;fillColor=none;spacing=5;spacingTop=-20;whiteSpace=wrap;overflow=hidden;rounded=0;opacity=50;" vertex="1" parent="1">
          <mxGeometry x="555.315" y="146.5" width="150" height="173" as="geometry"/>
        </mxCell>
        <mxCell id="lhyEcPZmuPK8agVlUcdz-50" value="" style="shape=flexArrow;endArrow=classic;html=1;exitX=1;exitY=0;exitDx=0;exitDy=0;entryX=0.008;entryY=0.454;entryDx=0;entryDy=0;entryPerimeter=0;fillColor=#000000;" edge="1" parent="1" source="lhyEcPZmuPK8agVlUcdz-49" target="lhyEcPZmuPK8agVlUcdz-45">
          <mxGeometry width="50" height="50" relative="1" as="geometry">
            <mxPoint x="587.6200000000049" y="193.47" as="sourcePoint"/>
            <mxPoint x="490.62" y="192.49999999999997" as="targetPoint"/>
          </mxGeometry>
        </mxCell>
        <mxCell id="lhyEcPZmuPK8agVlUcdz-48" value="" style="verticalLabelPosition=bottom;verticalAlign=top;html=1;shape=mxgraph.basic.donut;dx=4.67;strokeColor=#000000;fillColor=#CCCCCC;opacity=50;" vertex="1" parent="1">
          <mxGeometry x="410" y="233" width="30" height="30" as="geometry"/>
        </mxCell>
        <mxCell id="lhyEcPZmuPK8agVlUcdz-49" value="" style="ellipse;whiteSpace=wrap;html=1;aspect=fixed;strokeColor=#000000;fillColor=#CCCCCC;opacity=50;" vertex="1" parent="1">
          <mxGeometry x="419.25" y="242.25" width="11.5" height="11.5" as="geometry"/>
        </mxCell>
        <mxCell id="lhyEcPZmuPK8agVlUcdz-51" value="" style="rounded=1;whiteSpace=wrap;html=1;" vertex="1" parent="1">
          <mxGeometry x="560" y="49" width="150" height="60" as="geometry"/>
        </mxCell>
        <mxCell id="lhyEcPZmuPK8agVlUcdz-52" value="&lt;b&gt;Tapping image opens description overlay&lt;/b&gt;" style="text;html=1;strokeColor=none;fillColor=none;align=center;verticalAlign=middle;whiteSpace=wrap;rounded=0;" vertex="1" parent="1">
          <mxGeometry x="570" y="59" width="130" height="40" as="geometry"/>
        </mxCell>
        <mxCell id="lhyEcPZmuPK8agVlUcdz-55" value="" style="rounded=0;whiteSpace=wrap;html=1;fillColor=#d5e8d4;strokeColor=#82b366;" vertex="1" parent="1">
          <mxGeometry x="585" y="413" width="190" height="46" as="geometry"/>
        </mxCell>
        <mxCell id="lhyEcPZmuPK8agVlUcdz-56" value="" style="verticalLabelPosition=bottom;verticalAlign=top;html=1;shadow=0;dashed=0;strokeWidth=1;shape=mxgraph.android.phone2;strokeColor=#c0c0c0;fillColor=#333333;" vertex="1" parent="1">
          <mxGeometry x="580" y="383" width="200" height="390" as="geometry"/>
        </mxCell>
        <mxCell id="lhyEcPZmuPK8agVlUcdz-57" value="NASA APoD" style="text;html=1;strokeColor=none;fillColor=none;align=center;verticalAlign=middle;whiteSpace=wrap;rounded=0;" vertex="1" parent="1">
          <mxGeometry x="590" y="426" width="90" height="20" as="geometry"/>
        </mxCell>
        <mxCell id="lhyEcPZmuPK8agVlUcdz-58" value="" style="shape=image;html=1;verticalAlign=top;verticalLabelPosition=bottom;labelBackgroundColor=#ffffff;imageAspect=0;aspect=fixed;image=https://cdn0.iconfinder.com/data/icons/very-basic-android-l-lollipop-icon-pack/24/menu2-128.png;strokeColor=#FF6666;fillColor=#000000;" vertex="1" parent="1">
          <mxGeometry x="744.5" y="422" width="28" height="28" as="geometry"/>
        </mxCell>
        <mxCell id="lhyEcPZmuPK8agVlUcdz-59" value="" style="strokeWidth=1;shadow=1;dashed=0;align=center;html=1;shape=mxgraph.mockup.forms.rrect;rSize=5;strokeColor=none;fillColor=#ffffff;" vertex="1" parent="1">
          <mxGeometry x="600" y="462" width="160" height="178" as="geometry"/>
        </mxCell>
        <mxCell id="lhyEcPZmuPK8agVlUcdz-60" value="January, 2020" style="strokeWidth=1;shadow=0;dashed=0;align=center;html=1;shape=mxgraph.mockup.forms.anchor;fontColor=#999999;" vertex="1" parent="lhyEcPZmuPK8agVlUcdz-59">
          <mxGeometry x="30" y="8.137142857142857" width="100" height="20.34285714285714" as="geometry"/>
        </mxCell>
        <mxCell id="lhyEcPZmuPK8agVlUcdz-61" value="&lt;" style="strokeWidth=1;shadow=0;dashed=0;align=center;html=1;shape=mxgraph.mockup.forms.rrect;rSize=4;strokeColor=#999999;fontColor=#008cff;fontSize=19;fontStyle=1;" vertex="1" parent="lhyEcPZmuPK8agVlUcdz-59">
          <mxGeometry x="8" y="8.137142857142857" width="25" height="20.34285714285714" as="geometry"/>
        </mxCell>
        <mxCell id="lhyEcPZmuPK8agVlUcdz-62" value="&gt;" style="strokeWidth=1;shadow=0;dashed=0;align=center;html=1;shape=mxgraph.mockup.forms.rrect;rSize=4;strokeColor=#999999;fontColor=#008cff;fontSize=19;fontStyle=1;" vertex="1" parent="lhyEcPZmuPK8agVlUcdz-59">
          <mxGeometry x="127" y="8.137142857142857" width="25" height="20.34285714285714" as="geometry"/>
        </mxCell>
        <mxCell id="lhyEcPZmuPK8agVlUcdz-63" value="Mo" style="strokeWidth=1;shadow=0;dashed=0;align=center;html=1;shape=mxgraph.mockup.forms.anchor;fontColor=#999999;" vertex="1" parent="lhyEcPZmuPK8agVlUcdz-59">
          <mxGeometry x="10" y="28.48" width="20" height="20.34285714285714" as="geometry"/>
        </mxCell>
        <mxCell id="lhyEcPZmuPK8agVlUcdz-64" value="Tu" style="strokeWidth=1;shadow=0;dashed=0;align=center;html=1;shape=mxgraph.mockup.forms.anchor;fontColor=#999999;" vertex="1" parent="lhyEcPZmuPK8agVlUcdz-59">
          <mxGeometry x="30" y="28.48" width="20" height="20.34285714285714" as="geometry"/>
        </mxCell>
        <mxCell id="lhyEcPZmuPK8agVlUcdz-65" value="We" style="strokeWidth=1;shadow=0;dashed=0;align=center;html=1;shape=mxgraph.mockup.forms.anchor;fontColor=#999999;" vertex="1" parent="lhyEcPZmuPK8agVlUcdz-59">
          <mxGeometry x="50" y="28.48" width="20" height="20.34285714285714" as="geometry"/>
        </mxCell>
        <mxCell id="lhyEcPZmuPK8agVlUcdz-66" value="Th" style="strokeWidth=1;shadow=0;dashed=0;align=center;html=1;shape=mxgraph.mockup.forms.anchor;fontColor=#999999;" vertex="1" parent="lhyEcPZmuPK8agVlUcdz-59">
          <mxGeometry x="70" y="28.48" width="20" height="20.34285714285714" as="geometry"/>
        </mxCell>
        <mxCell id="lhyEcPZmuPK8agVlUcdz-67" value="Fr" style="strokeWidth=1;shadow=0;dashed=0;align=center;html=1;shape=mxgraph.mockup.forms.anchor;fontColor=#999999;" vertex="1" parent="lhyEcPZmuPK8agVlUcdz-59">
          <mxGeometry x="90" y="28.48" width="20" height="20.34285714285714" as="geometry"/>
        </mxCell>
        <mxCell id="lhyEcPZmuPK8agVlUcdz-68" value="Sa" style="strokeWidth=1;shadow=0;dashed=0;align=center;html=1;shape=mxgraph.mockup.forms.anchor;fontColor=#999999;" vertex="1" parent="lhyEcPZmuPK8agVlUcdz-59">
          <mxGeometry x="110" y="28.48" width="20" height="20.34285714285714" as="geometry"/>
        </mxCell>
        <mxCell id="lhyEcPZmuPK8agVlUcdz-69" value="Su" style="strokeWidth=1;shadow=0;dashed=0;align=center;html=1;shape=mxgraph.mockup.forms.anchor;fontColor=#999999;" vertex="1" parent="lhyEcPZmuPK8agVlUcdz-59">
          <mxGeometry x="130" y="28.48" width="20" height="20.34285714285714" as="geometry"/>
        </mxCell>
        <mxCell id="lhyEcPZmuPK8agVlUcdz-70" value="1" style="strokeWidth=1;shadow=0;dashed=0;align=center;html=1;shape=mxgraph.mockup.forms.rrect;rSize=0;strokeColor=#999999;fontColor=#999999;" vertex="1" parent="lhyEcPZmuPK8agVlUcdz-59">
          <mxGeometry x="10" y="48.822857142857146" width="20" height="20.34285714285714" as="geometry"/>
        </mxCell>
        <mxCell id="lhyEcPZmuPK8agVlUcdz-71" value="2" style="strokeWidth=1;shadow=0;dashed=0;align=center;html=1;shape=mxgraph.mockup.forms.rrect;rSize=0;strokeColor=#999999;fontColor=#999999;" vertex="1" parent="lhyEcPZmuPK8agVlUcdz-59">
          <mxGeometry x="30" y="48.822857142857146" width="20" height="20.34285714285714" as="geometry"/>
        </mxCell>
        <mxCell id="lhyEcPZmuPK8agVlUcdz-72" value="3" style="strokeWidth=1;shadow=0;dashed=0;align=center;html=1;shape=mxgraph.mockup.forms.rrect;rSize=0;strokeColor=#999999;fontColor=#999999;" vertex="1" parent="lhyEcPZmuPK8agVlUcdz-59">
          <mxGeometry x="50" y="48.822857142857146" width="20" height="20.34285714285714" as="geometry"/>
        </mxCell>
        <mxCell id="lhyEcPZmuPK8agVlUcdz-73" value="4" style="strokeWidth=1;shadow=0;dashed=0;align=center;html=1;shape=mxgraph.mockup.forms.rrect;rSize=0;strokeColor=#999999;fontColor=#999999;" vertex="1" parent="lhyEcPZmuPK8agVlUcdz-59">
          <mxGeometry x="70" y="48.822857142857146" width="20" height="20.34285714285714" as="geometry"/>
        </mxCell>
        <mxCell id="lhyEcPZmuPK8agVlUcdz-74" value="5" style="strokeWidth=1;shadow=0;dashed=0;align=center;html=1;shape=mxgraph.mockup.forms.rrect;rSize=0;strokeColor=#999999;fontColor=#999999;" vertex="1" parent="lhyEcPZmuPK8agVlUcdz-59">
          <mxGeometry x="90" y="48.822857142857146" width="20" height="20.34285714285714" as="geometry"/>
        </mxCell>
        <mxCell id="lhyEcPZmuPK8agVlUcdz-75" value="6" style="strokeWidth=1;shadow=0;dashed=0;align=center;html=1;shape=mxgraph.mockup.forms.rrect;rSize=0;strokeColor=#999999;fontColor=#999999;" vertex="1" parent="lhyEcPZmuPK8agVlUcdz-59">
          <mxGeometry x="110" y="48.822857142857146" width="20" height="20.34285714285714" as="geometry"/>
        </mxCell>
        <mxCell id="lhyEcPZmuPK8agVlUcdz-76" value="7" style="strokeWidth=1;shadow=0;dashed=0;align=center;html=1;shape=mxgraph.mockup.forms.rrect;rSize=0;strokeColor=#999999;fontColor=#999999;" vertex="1" parent="lhyEcPZmuPK8agVlUcdz-59">
          <mxGeometry x="130" y="48.822857142857146" width="20" height="20.34285714285714" as="geometry"/>
        </mxCell>
        <mxCell id="lhyEcPZmuPK8agVlUcdz-77" value="8" style="strokeWidth=1;shadow=0;dashed=0;align=center;html=1;shape=mxgraph.mockup.forms.rrect;rSize=0;strokeColor=#999999;fontColor=#999999;" vertex="1" parent="lhyEcPZmuPK8agVlUcdz-59">
          <mxGeometry x="10" y="69.16571428571429" width="20" height="20.34285714285714" as="geometry"/>
        </mxCell>
        <mxCell id="lhyEcPZmuPK8agVlUcdz-78" value="9" style="strokeWidth=1;shadow=0;dashed=0;align=center;html=1;shape=mxgraph.mockup.forms.rrect;rSize=0;strokeColor=#999999;fontColor=#999999;" vertex="1" parent="lhyEcPZmuPK8agVlUcdz-59">
          <mxGeometry x="30" y="69.16571428571429" width="20" height="20.34285714285714" as="geometry"/>
        </mxCell>
        <mxCell id="lhyEcPZmuPK8agVlUcdz-79" value="10" style="strokeWidth=1;shadow=0;dashed=0;align=center;html=1;shape=mxgraph.mockup.forms.rrect;rSize=0;strokeColor=#999999;fontColor=#999999;" vertex="1" parent="lhyEcPZmuPK8agVlUcdz-59">
          <mxGeometry x="50" y="69.16571428571429" width="20" height="20.34285714285714" as="geometry"/>
        </mxCell>
        <mxCell id="lhyEcPZmuPK8agVlUcdz-80" value="11" style="strokeWidth=1;shadow=0;dashed=0;align=center;html=1;shape=mxgraph.mockup.forms.rrect;rSize=0;strokeColor=#999999;fontColor=#999999;" vertex="1" parent="lhyEcPZmuPK8agVlUcdz-59">
          <mxGeometry x="70" y="69.16571428571429" width="20" height="20.34285714285714" as="geometry"/>
        </mxCell>
        <mxCell id="lhyEcPZmuPK8agVlUcdz-81" value="12" style="strokeWidth=1;shadow=0;dashed=0;align=center;html=1;shape=mxgraph.mockup.forms.rrect;rSize=0;strokeColor=#999999;fontColor=#999999;" vertex="1" parent="lhyEcPZmuPK8agVlUcdz-59">
          <mxGeometry x="90" y="69.16571428571429" width="20" height="20.34285714285714" as="geometry"/>
        </mxCell>
        <mxCell id="lhyEcPZmuPK8agVlUcdz-82" value="13" style="strokeWidth=1;shadow=0;dashed=0;align=center;html=1;shape=mxgraph.mockup.forms.rrect;rSize=0;strokeColor=#999999;fontColor=#999999;" vertex="1" parent="lhyEcPZmuPK8agVlUcdz-59">
          <mxGeometry x="110" y="69.16571428571429" width="20" height="20.34285714285714" as="geometry"/>
        </mxCell>
        <mxCell id="lhyEcPZmuPK8agVlUcdz-83" value="14" style="strokeWidth=1;shadow=0;dashed=0;align=center;html=1;shape=mxgraph.mockup.forms.rrect;rSize=0;strokeColor=#999999;fontColor=#999999;" vertex="1" parent="lhyEcPZmuPK8agVlUcdz-59">
          <mxGeometry x="130" y="69.16571428571429" width="20" height="20.34285714285714" as="geometry"/>
        </mxCell>
        <mxCell id="lhyEcPZmuPK8agVlUcdz-84" value="15" style="strokeWidth=1;shadow=0;dashed=0;align=center;html=1;shape=mxgraph.mockup.forms.rrect;rSize=0;strokeColor=#999999;fontColor=#999999;" vertex="1" parent="lhyEcPZmuPK8agVlUcdz-59">
          <mxGeometry x="10" y="89.50857142857143" width="20" height="20.34285714285714" as="geometry"/>
        </mxCell>
        <mxCell id="lhyEcPZmuPK8agVlUcdz-85" value="16" style="strokeWidth=1;shadow=0;dashed=0;align=center;html=1;shape=mxgraph.mockup.forms.rrect;rSize=0;strokeColor=#999999;fontColor=#999999;" vertex="1" parent="lhyEcPZmuPK8agVlUcdz-59">
          <mxGeometry x="30" y="89.50857142857143" width="20" height="20.34285714285714" as="geometry"/>
        </mxCell>
        <mxCell id="lhyEcPZmuPK8agVlUcdz-86" value="17" style="strokeWidth=1;shadow=0;dashed=0;align=center;html=1;shape=mxgraph.mockup.forms.rrect;rSize=0;strokeColor=#999999;fontColor=#999999;" vertex="1" parent="lhyEcPZmuPK8agVlUcdz-59">
          <mxGeometry x="50" y="89.50857142857143" width="20" height="20.34285714285714" as="geometry"/>
        </mxCell>
        <mxCell id="lhyEcPZmuPK8agVlUcdz-87" value="18" style="strokeWidth=1;shadow=0;dashed=0;align=center;html=1;shape=mxgraph.mockup.forms.rrect;rSize=0;strokeColor=#999999;fontColor=#999999;" vertex="1" parent="lhyEcPZmuPK8agVlUcdz-59">
          <mxGeometry x="70" y="89.50857142857143" width="20" height="20.34285714285714" as="geometry"/>
        </mxCell>
        <mxCell id="lhyEcPZmuPK8agVlUcdz-88" value="19" style="strokeWidth=1;shadow=0;dashed=0;align=center;html=1;shape=mxgraph.mockup.forms.rrect;rSize=0;strokeColor=#999999;fontColor=#999999;" vertex="1" parent="lhyEcPZmuPK8agVlUcdz-59">
          <mxGeometry x="90" y="89.50857142857143" width="20" height="20.34285714285714" as="geometry"/>
        </mxCell>
        <mxCell id="lhyEcPZmuPK8agVlUcdz-89" value="20" style="strokeWidth=1;shadow=0;dashed=0;align=center;html=1;shape=mxgraph.mockup.forms.rrect;rSize=0;strokeColor=#999999;fontColor=#999999;" vertex="1" parent="lhyEcPZmuPK8agVlUcdz-59">
          <mxGeometry x="110" y="89.50857142857143" width="20" height="20.34285714285714" as="geometry"/>
        </mxCell>
        <mxCell id="lhyEcPZmuPK8agVlUcdz-90" value="21" style="strokeWidth=1;shadow=0;dashed=0;align=center;html=1;shape=mxgraph.mockup.forms.rrect;rSize=0;strokeColor=#999999;fontColor=#999999;" vertex="1" parent="lhyEcPZmuPK8agVlUcdz-59">
          <mxGeometry x="130" y="89.50857142857143" width="20" height="20.34285714285714" as="geometry"/>
        </mxCell>
        <mxCell id="lhyEcPZmuPK8agVlUcdz-91" value="22" style="strokeWidth=1;shadow=0;dashed=0;align=center;html=1;shape=mxgraph.mockup.forms.rrect;rSize=0;strokeColor=#999999;fontColor=#999999;" vertex="1" parent="lhyEcPZmuPK8agVlUcdz-59">
          <mxGeometry x="10" y="109.85142857142857" width="20" height="20.34285714285714" as="geometry"/>
        </mxCell>
        <mxCell id="lhyEcPZmuPK8agVlUcdz-92" value="23" style="strokeWidth=1;shadow=0;dashed=0;align=center;html=1;shape=mxgraph.mockup.forms.rrect;rSize=0;strokeColor=#999999;fontColor=#999999;" vertex="1" parent="lhyEcPZmuPK8agVlUcdz-59">
          <mxGeometry x="30" y="109.85142857142857" width="20" height="20.34285714285714" as="geometry"/>
        </mxCell>
        <mxCell id="lhyEcPZmuPK8agVlUcdz-93" value="25" style="strokeWidth=1;shadow=0;dashed=0;align=center;html=1;shape=mxgraph.mockup.forms.rrect;rSize=0;strokeColor=#999999;fontColor=#999999;" vertex="1" parent="lhyEcPZmuPK8agVlUcdz-59">
          <mxGeometry x="70" y="109.85142857142857" width="20" height="20.34285714285714" as="geometry"/>
        </mxCell>
        <mxCell id="lhyEcPZmuPK8agVlUcdz-94" value="26" style="strokeWidth=1;shadow=0;dashed=0;align=center;html=1;shape=mxgraph.mockup.forms.rrect;rSize=0;strokeColor=#999999;fontColor=#999999;" vertex="1" parent="lhyEcPZmuPK8agVlUcdz-59">
          <mxGeometry x="90" y="109.85142857142857" width="20" height="20.34285714285714" as="geometry"/>
        </mxCell>
        <mxCell id="lhyEcPZmuPK8agVlUcdz-95" value="27" style="strokeWidth=1;shadow=0;dashed=0;align=center;html=1;shape=mxgraph.mockup.forms.rrect;rSize=0;strokeColor=#999999;fontColor=#999999;" vertex="1" parent="lhyEcPZmuPK8agVlUcdz-59">
          <mxGeometry x="110" y="109.85142857142857" width="20" height="20.34285714285714" as="geometry"/>
        </mxCell>
        <mxCell id="lhyEcPZmuPK8agVlUcdz-96" value="28" style="strokeWidth=1;shadow=0;dashed=0;align=center;html=1;shape=mxgraph.mockup.forms.rrect;rSize=0;strokeColor=#999999;fontColor=#999999;" vertex="1" parent="lhyEcPZmuPK8agVlUcdz-59">
          <mxGeometry x="130" y="109.85142857142857" width="20" height="20.34285714285714" as="geometry"/>
        </mxCell>
        <mxCell id="lhyEcPZmuPK8agVlUcdz-97" value="29" style="strokeWidth=1;shadow=0;dashed=0;align=center;html=1;shape=mxgraph.mockup.forms.rrect;rSize=0;strokeColor=#999999;fontColor=#999999;" vertex="1" parent="lhyEcPZmuPK8agVlUcdz-59">
          <mxGeometry x="10" y="130.1942857142857" width="20" height="20.34285714285714" as="geometry"/>
        </mxCell>
        <mxCell id="lhyEcPZmuPK8agVlUcdz-98" value="30" style="strokeWidth=1;shadow=0;dashed=0;align=center;html=1;shape=mxgraph.mockup.forms.rrect;rSize=0;strokeColor=#999999;fontColor=#999999;" vertex="1" parent="lhyEcPZmuPK8agVlUcdz-59">
          <mxGeometry x="30" y="130.1942857142857" width="20" height="20.34285714285714" as="geometry"/>
        </mxCell>
        <mxCell id="lhyEcPZmuPK8agVlUcdz-99" value="31" style="strokeWidth=1;shadow=0;dashed=0;align=center;html=1;shape=mxgraph.mockup.forms.rrect;rSize=0;strokeColor=#999999;fontColor=#999999;" vertex="1" parent="lhyEcPZmuPK8agVlUcdz-59">
          <mxGeometry x="50" y="130.1942857142857" width="20" height="20.34285714285714" as="geometry"/>
        </mxCell>
        <mxCell id="lhyEcPZmuPK8agVlUcdz-100" value="1" style="strokeWidth=1;shadow=0;dashed=0;align=center;html=1;shape=mxgraph.mockup.forms.rrect;rSize=0;strokeColor=#999999;fontColor=#999999;fillColor=#ddeeff;" vertex="1" parent="lhyEcPZmuPK8agVlUcdz-59">
          <mxGeometry x="70" y="130.1942857142857" width="20" height="20.34285714285714" as="geometry"/>
        </mxCell>
        <mxCell id="lhyEcPZmuPK8agVlUcdz-101" value="2" style="strokeWidth=1;shadow=0;dashed=0;align=center;html=1;shape=mxgraph.mockup.forms.rrect;rSize=0;strokeColor=#999999;fontColor=#999999;fillColor=#ddeeff;" vertex="1" parent="lhyEcPZmuPK8agVlUcdz-59">
          <mxGeometry x="90" y="130.1942857142857" width="20" height="20.34285714285714" as="geometry"/>
        </mxCell>
        <mxCell id="lhyEcPZmuPK8agVlUcdz-102" value="3" style="strokeWidth=1;shadow=0;dashed=0;align=center;html=1;shape=mxgraph.mockup.forms.rrect;rSize=0;strokeColor=#999999;fontColor=#999999;fillColor=#ddeeff;" vertex="1" parent="lhyEcPZmuPK8agVlUcdz-59">
          <mxGeometry x="110" y="130.1942857142857" width="20" height="20.34285714285714" as="geometry"/>
        </mxCell>
        <mxCell id="lhyEcPZmuPK8agVlUcdz-103" value="4" style="strokeWidth=1;shadow=0;dashed=0;align=center;html=1;shape=mxgraph.mockup.forms.rrect;rSize=0;strokeColor=#999999;fontColor=#999999;fillColor=#ddeeff;" vertex="1" parent="lhyEcPZmuPK8agVlUcdz-59">
          <mxGeometry x="130" y="130.1942857142857" width="20" height="20.34285714285714" as="geometry"/>
        </mxCell>
        <mxCell id="lhyEcPZmuPK8agVlUcdz-104" value="5" style="strokeWidth=1;shadow=0;dashed=0;align=center;html=1;shape=mxgraph.mockup.forms.rrect;rSize=0;strokeColor=#999999;fontColor=#999999;fillColor=#ddeeff;" vertex="1" parent="lhyEcPZmuPK8agVlUcdz-59">
          <mxGeometry x="10" y="150.53714285714287" width="20" height="20.34285714285714" as="geometry"/>
        </mxCell>
        <mxCell id="lhyEcPZmuPK8agVlUcdz-105" value="6" style="strokeWidth=1;shadow=0;dashed=0;align=center;html=1;shape=mxgraph.mockup.forms.rrect;rSize=0;strokeColor=#999999;fontColor=#999999;fillColor=#ddeeff;" vertex="1" parent="lhyEcPZmuPK8agVlUcdz-59">
          <mxGeometry x="30" y="150.53714285714287" width="20" height="20.34285714285714" as="geometry"/>
        </mxCell>
        <mxCell id="lhyEcPZmuPK8agVlUcdz-106" value="7" style="strokeWidth=1;shadow=0;dashed=0;align=center;html=1;shape=mxgraph.mockup.forms.rrect;rSize=0;strokeColor=#999999;fontColor=#999999;fillColor=#ddeeff;" vertex="1" parent="lhyEcPZmuPK8agVlUcdz-59">
          <mxGeometry x="50" y="150.53714285714287" width="20" height="20.34285714285714" as="geometry"/>
        </mxCell>
        <mxCell id="lhyEcPZmuPK8agVlUcdz-107" value="8" style="strokeWidth=1;shadow=0;dashed=0;align=center;html=1;shape=mxgraph.mockup.forms.rrect;rSize=0;strokeColor=#999999;fontColor=#999999;fillColor=#ddeeff;" vertex="1" parent="lhyEcPZmuPK8agVlUcdz-59">
          <mxGeometry x="70" y="150.53714285714287" width="20" height="20.34285714285714" as="geometry"/>
        </mxCell>
        <mxCell id="lhyEcPZmuPK8agVlUcdz-108" value="9" style="strokeWidth=1;shadow=0;dashed=0;align=center;html=1;shape=mxgraph.mockup.forms.rrect;rSize=0;strokeColor=#999999;fontColor=#999999;fillColor=#ddeeff;" vertex="1" parent="lhyEcPZmuPK8agVlUcdz-59">
          <mxGeometry x="90" y="150.53714285714287" width="20" height="20.34285714285714" as="geometry"/>
        </mxCell>
        <mxCell id="lhyEcPZmuPK8agVlUcdz-109" value="10" style="strokeWidth=1;shadow=0;dashed=0;align=center;html=1;shape=mxgraph.mockup.forms.rrect;rSize=0;strokeColor=#999999;fontColor=#999999;fillColor=#ddeeff;" vertex="1" parent="lhyEcPZmuPK8agVlUcdz-59">
          <mxGeometry x="110" y="150.53714285714287" width="20" height="20.34285714285714" as="geometry"/>
        </mxCell>
        <mxCell id="lhyEcPZmuPK8agVlUcdz-110" value="11" style="strokeWidth=1;shadow=0;dashed=0;align=center;html=1;shape=mxgraph.mockup.forms.rrect;rSize=0;strokeColor=#999999;fontColor=#999999;fillColor=#ddeeff;" vertex="1" parent="lhyEcPZmuPK8agVlUcdz-59">
          <mxGeometry x="130" y="150.53714285714287" width="20" height="20.34285714285714" as="geometry"/>
        </mxCell>
        <mxCell id="lhyEcPZmuPK8agVlUcdz-111" value="24" style="strokeWidth=1;shadow=0;dashed=0;align=center;html=1;shape=mxgraph.mockup.forms.rrect;rSize=0;strokeColor=#ff0000;fontColor=#ffffff;strokeWidth=2;fillColor=#008cff;" vertex="1" parent="lhyEcPZmuPK8agVlUcdz-59">
          <mxGeometry x="50" y="109.85142857142857" width="20" height="20.34285714285714" as="geometry"/>
        </mxCell>
        <mxCell id="lhyEcPZmuPK8agVlUcdz-115" value="" style="shape=flexArrow;endArrow=classic;html=1;exitX=1;exitY=0.5;exitDx=0;exitDy=0;entryX=-0.023;entryY=0.131;entryDx=0;entryDy=0;entryPerimeter=0;fillColor=#000000;" edge="1" parent="1" source="lhyEcPZmuPK8agVlUcdz-3" target="lhyEcPZmuPK8agVlUcdz-56">
          <mxGeometry width="50" height="50" relative="1" as="geometry">
            <mxPoint x="319.6200000000049" y="445" as="sourcePoint"/>
            <mxPoint x="222.62" y="444.03" as="targetPoint"/>
          </mxGeometry>
        </mxCell>
        <mxCell id="lhyEcPZmuPK8agVlUcdz-116" value="" style="rounded=1;whiteSpace=wrap;html=1;strokeColor=#000000;fillColor=#FFFFFF;" vertex="1" parent="1">
          <mxGeometry x="473.62" y="554.39" width="60" height="50" as="geometry"/>
        </mxCell>
        <mxCell id="lhyEcPZmuPK8agVlUcdz-117" value="" style="endArrow=classic;html=1;exitX=0.25;exitY=0;exitDx=0;exitDy=0;entryX=1;entryY=1;entryDx=0;entryDy=0;" edge="1" parent="1" source="lhyEcPZmuPK8agVlUcdz-116" target="lhyEcPZmuPK8agVlUcdz-3">
          <mxGeometry width="50" height="50" relative="1" as="geometry">
            <mxPoint x="533.62" y="595.39" as="sourcePoint"/>
            <mxPoint x="527.6333982822088" y="439.9966017177911" as="targetPoint"/>
          </mxGeometry>
        </mxCell>
        <mxCell id="lhyEcPZmuPK8agVlUcdz-118" value="Calendar button" style="text;html=1;strokeColor=none;fillColor=none;align=center;verticalAlign=middle;whiteSpace=wrap;rounded=0;" vertex="1" parent="1">
          <mxGeometry x="483.62" y="571.39" width="40" height="20" as="geometry"/>
        </mxCell>
        <mxCell id="lhyEcPZmuPK8agVlUcdz-120" value="" style="rounded=0;whiteSpace=wrap;html=1;shadow=1;" vertex="1" parent="1">
          <mxGeometry x="593.5" y="670" width="69.38" height="27" as="geometry"/>
        </mxCell>
        <mxCell id="lhyEcPZmuPK8agVlUcdz-122" value="Cancel" style="text;html=1;strokeColor=none;fillColor=none;align=center;verticalAlign=middle;whiteSpace=wrap;rounded=0;shadow=1;" vertex="1" parent="1">
          <mxGeometry x="608.19" y="673.5" width="40" height="20" as="geometry"/>
        </mxCell>
        <mxCell id="lhyEcPZmuPK8agVlUcdz-125" value="" style="curved=1;endArrow=classic;html=1;fillColor=#000000;entryX=0.497;entryY=1.012;entryDx=0;entryDy=0;entryPerimeter=0;exitX=1;exitY=0.75;exitDx=0;exitDy=0;strokeWidth=9;" edge="1" parent="1" source="lhyEcPZmuPK8agVlUcdz-123" target="lhyEcPZmuPK8agVlUcdz-1">
          <mxGeometry width="50" height="50" relative="1" as="geometry">
            <mxPoint x="420.62" y="697" as="sourcePoint"/>
            <mxPoint x="470.62" y="647" as="targetPoint"/>
            <Array as="points">
              <mxPoint x="490" y="760"/>
              <mxPoint x="421" y="647"/>
            </Array>
          </mxGeometry>
        </mxCell>
        <mxCell id="lhyEcPZmuPK8agVlUcdz-121" value="" style="rounded=0;whiteSpace=wrap;html=1;shadow=1;" vertex="1" parent="1">
          <mxGeometry x="697.1200000000001" y="670" width="69.38" height="27" as="geometry"/>
        </mxCell>
        <mxCell id="lhyEcPZmuPK8agVlUcdz-123" value="Okay" style="text;html=1;strokeColor=none;fillColor=none;align=center;verticalAlign=middle;whiteSpace=wrap;rounded=0;shadow=1;" vertex="1" parent="1">
          <mxGeometry x="711.81" y="673.5" width="40" height="20" as="geometry"/>
        </mxCell>
        <mxCell id="lhyEcPZmuPK8agVlUcdz-126" value="" style="rounded=1;whiteSpace=wrap;html=1;" vertex="1" parent="1">
          <mxGeometry x="400" y="740" width="150" height="60" as="geometry"/>
        </mxCell>
        <mxCell id="lhyEcPZmuPK8agVlUcdz-127" value="&lt;b&gt;&quot;Okay&quot; loads a new image on the main screen.&lt;/b&gt;" style="text;html=1;strokeColor=none;fillColor=none;align=center;verticalAlign=middle;whiteSpace=wrap;rounded=0;" vertex="1" parent="1">
          <mxGeometry x="402.34000000000003" y="750" width="145.32" height="40" as="geometry"/>
        </mxCell>
      </root>
    </mxGraphModel>
  </diagram>
</mxfile>
